# xmcd
#
# Track frame offsets:
#	150
#	23834
#	36431
#	51406
#	64483
#	79292
#	90094
#	103469
#	113758
#	124673
#	136617
#	147479
#	162064
#	175868
#	186998
#	198770
#
# Disc length: 2787 seconds
#
# Revision: 0
# Processed by: cddbd v1.4PL0 Copyright (c) Steve Scherf et al.
# Submitted via: EasyCDDAExtractor 4.5.0.2
#
DISCID=df0ae110
DTITLE=Waylon Jennings - 16 Top Tracks
DYEAR=1980
DGENRE=Country
TTITLE0=MacArthur Park
TTITLE1=Cindy Oh Cindy
TTITLE2=Games People Play
TTITLE3=Today I Started Loving Her Again
TTITLE4=Folsom Prison Blues
TTITLE5=You've Got To Hide Your Love Away
TTITLE6=Love Of The Common People
TTITLE7=Ruby, Don't Take Your Love To Town
TTITLE8=Only Daddy That'll Walk The Line
TTITLE9=Such A Waste Of Love
TTITLE10=Kentucky Woman
TTITLE11=No Regrets
TTITLE12=Honky Tonk Woman
TTITLE13=If I Were A Carpenter
TTITLE14=Lonely Weekends
TTITLE15=Just To Satisfy You
EXTD=
EXTT0=
EXTT1=
EXTT2=
EXTT3=
EXTT4=
EXTT5=
EXTT6=
EXTT7=
EXTT8=
EXTT9=
EXTT10=
EXTT11=
EXTT12=
EXTT13=
EXTT14=
EXTT15=
PLAYORDER=
